<?xml version="1.0" encoding="UTF-8" standalone="no"?>
<!-- Created with Inkscape (http://www.inkscape.org/) -->

<svg
   width="512"
   height="512"
   viewBox="0 0 135.46667 135.46667"
   version="1.1"
   id="svg1"
   xml:space="preserve"
   inkscape:version="1.4 (86a8ad7, 2024-10-11)"
   sodipodi:docname="logo.svg"
   xmlns:inkscape="http://www.inkscape.org/namespaces/inkscape"
   xmlns:sodipodi="http://sodipodi.sourceforge.net/DTD/sodipodi-0.dtd"
   xmlns="http://www.w3.org/2000/svg"
   xmlns:svg="http://www.w3.org/2000/svg"><sodipodi:namedview
     id="namedview1"
     pagecolor="#505050"
     bordercolor="#eeeeee"
     borderopacity="1"
     inkscape:showpageshadow="false"
     inkscape:pageopacity="0"
     inkscape:pagecheckerboard="true"
     inkscape:deskcolor="#505050"
     inkscape:document-units="mm"
     showgrid="false"
     inkscape:zoom="0.70710678"
     inkscape:cx="104.6518"
     inkscape:cy="399.51533"
     inkscape:window-width="1366"
     inkscape:window-height="705"
     inkscape:window-x="-8"
     inkscape:window-y="-8"
     inkscape:window-maximized="1"
     inkscape:current-layer="layer1"><inkscape:grid
       id="grid1"
       units="mm"
       originx="0"
       originy="0"
       spacingx="10"
       spacingy="10"
       empcolor="#0099e5"
       empopacity="0.30196078"
       color="#0099e5"
       opacity="0.14901961"
       empspacing="5"
       enabled="true"
       visible="false" /></sodipodi:namedview><defs
     id="defs1" /><g
     inkscape:label="Layer 1"
     inkscape:groupmode="layer"
     id="layer1"><path
       id="path1"
       style="stroke-width:0.266747;fill:#ffffff"
       d="M 15.262118 16.732829 L 5.7335002 38.431763 L 117.02852 38.431763 L 126.55713 16.732829 L 15.262118 16.732829 z M 127.2005 21.034375 L 118.61653 40.582536 L 9.8541789 40.582536 L 8.9095337 42.732792 L 120.20455 42.732792 L 129.73317 21.034375 L 127.2005 21.034375 z M 15.262118 54.733093 L 5.7335002 76.432027 L 117.02852 76.432027 L 126.55713 54.733093 L 15.262118 54.733093 z M 127.2005 59.034639 L 118.61653 78.5828 L 9.8541789 78.5828 L 8.9095337 80.733573 L 120.20455 80.733573 L 129.73317 59.034639 L 127.2005 59.034639 z M 15.262118 92.732841 L 5.7335002 114.43177 L 117.02852 114.43177 L 126.55713 92.732841 L 15.262118 92.732841 z M 127.2005 97.034387 L 118.61653 116.58255 L 9.8541789 116.58255 L 8.9095337 118.7328 L 120.20455 118.7328 L 129.73317 97.034387 L 127.2005 97.034387 z " /></g></svg>
